# xmcd
#
# Track frame offsets:
#	150
#	15443
#	30438
#	43263
#	58700
#	74444
#	89563
#	103444
#	117207
#	131026
#	144434
#	158067
#	171777
#	187003
#	201733
#	217045
#	231390
#	247225
#	262456
#	278028
#
# Disc length: 3900 seconds
#
# Revision: 0
# Processed by: cddbd v1.5.2PL0 Copyright (c) Steve Scherf et al.
# Submitted via: EasyCDDAExtractor 12.1.0.1
#
DISCID=450f3a14
DTITLE=Vera Lynn - 100 Hits Legends - CD 3
DYEAR=2010
DGENRE=Country
TTITLE0=When They Sound The Last All Clear
TTITLE1=Over The Rainbow
TTITLE2=When You Wish Upon A Star
TTITLE3=There'll Come Another Day
TTITLE4=You'll Never Know
TTITLE5=For Sweethearts Everywhere
TTITLE6=Please Think Of Me
TTITLE7=Mexicali Rose
TTITLE8=Cinderella Sweetheart
TTITLE9=You Can't Be True Dear
TTITLE10=Little Sir Echo
TTITLE11=Smilin' Through
TTITLE12=Over The Hill
TTITLE13=Careless
TTITLE14=I Don't Want To Set The World On Fire
TTITLE15=Rosalie
TTITLE16=Little Star (Estrellita)
TTITLE17=You're Breaking My Heart All Over Again
TTITLE18=Someone's Rocking My Dreamboat
TTITLE19=There's A Ship Rolling Home
EXTD=
EXTT0=
EXTT1=
EXTT2=
EXTT3=
EXTT4=
EXTT5=
EXTT6=
EXTT7=
EXTT8=
EXTT9=
EXTT10=
EXTT11=
EXTT12=
EXTT13=
EXTT14=
EXTT15=
EXTT16=
EXTT17=
EXTT18=
EXTT19=
PLAYORDER=
